<?xml version="1.0" encoding="utf-8"?>
<!-- Generator: Adobe Illustrator 19.2.0, SVG Export Plug-In . SVG Version: 6.00 Build 0)  -->
<svg version="1.1" id="Layer_1" xmlns="http://www.w3.org/2000/svg" xmlns:xlink="http://www.w3.org/1999/xlink" x="0px" y="0px"
	 viewBox="0 0 111.4 158.3" style="enable-background:new 0 0 111.4 158.3;" xml:space="preserve">
<style type="text/css">
	.st0{fill:#FFFFFF;}
</style>
<path class="st0" d="M80.8,43.4c2.4,6.7-1.7,10.9-5.5,15.4C65.9,70,56.5,81.2,47.4,92.7c-3.3,4.2-5.7,9.1-7.9,14.2
	c4.9-4.4,9.4-9.5,14.8-13.1c7.3-4.8,14.8-9.8,23-12.4c13-4.2,21.1,3.9,17.2,16.9c-1.9,6.3-5.8,12.4-10.3,17.3
	C70.7,130.2,53,137,33.7,140.4c-3.9,0.7-7.9,1.3-11.9,1.5c-4.1,0.2-5.9,2.3-7,5.9C13,154,7.7,157.8,0,158.3
	c3.5-6.1,6.8-12,10.2-17.9c-2-2-3.8-3.8-5.7-5.7c0.4-0.4,0.7-0.8,1.1-1.3c2.2,0.9,4.4,1.8,6.9,2.8c1.6-2.6,3.1-5.2,4.6-7.7
	c16.4-28.4,32.5-57,49.2-85.1C74.2,30.1,82.8,17.1,95,7.1c2.9-2.4,6.1-4.8,9.5-6.3c5.1-2.2,8,0.2,6.6,5.7
	c-3.8,14.7-12.8,25.7-25.4,34C84.1,41.4,82.5,42.4,80.8,43.4z M20.7,137.9c19.1-2.2,35.6-6.9,48.5-19.6c5.5-5.5,9.6-12.6,13.6-19.4
	c1.9-3.2,3.2-8-0.4-11.1s-7.7-0.9-11.2,0.9C49.6,99.6,34.9,117.4,20.7,137.9z M75.1,40.3c0.4,0.3,0.8,0.7,1.2,1
	c11.8-8.5,21.5-18.5,26.4-32.6c-0.4-0.3-0.8-0.6-1.2-0.9C92.8,18.6,83.9,29.4,75.1,40.3z M74.9,44.2c-0.5-0.3-1-0.6-1.4-0.9
	c-3.7,6.1-7.4,12.3-11.1,18.4c0.4,0.2,0.8,0.5,1.3,0.7C66.8,56.1,77.2,53.9,74.9,44.2z"/>
<path class="st0" d="M111.8,158.4c-32,0-64,0-96,0c0-0.3,0-0.6,0-0.9c32,0,64,0,96,0C111.7,157.8,111.7,158.1,111.8,158.4z"/>
</svg>
