<?xml version="1.0" encoding="utf-8"?>
<!-- Generator: Adobe Illustrator 19.2.0, SVG Export Plug-In . SVG Version: 6.00 Build 0)  -->
<svg version="1.1" id="Layer_1" xmlns="http://www.w3.org/2000/svg" xmlns:xlink="http://www.w3.org/1999/xlink" x="0px" y="0px"
	 viewBox="0 0 50 50" style="enable-background:new 0 0 50 50;" xml:space="preserve">
<g>
	<g>
		<path d="M47.5,9.6h1.7v37.7h-1.1V10.9h-0.1l-16,36.4h-1.2l-16-36.4h-0.1v36.4h-1.1V9.6h1.7l16,36.3h0.1L47.5,9.6z"/>
	</g>
	<g>
		<path d="M34.5,2.7h1.7v37.7h-1.1V4h-0.1l-16,36.4h-1.2L1.9,4H1.8v36.4H0.8V2.7h1.7l16,36.3h0.1L34.5,2.7z"/>
	</g>
	<polyline points="36.2,2.7 49.2,9.6 47.5,9.6 34.5,2.7 	"/>
	<polygon points="15.5,9.6 2.5,2.7 0.8,2.7 13.8,9.6 	"/>
	<polygon points="14.8,47.3 1.8,40.4 0.8,40.4 13.8,47.3 	"/>
	<polygon points="32.1,47.3 19.1,40.4 17.9,40.4 30.9,47.3 	"/>
	<polygon points="36.2,40.4 49.2,47.3 48.2,47.3 35.2,40.4 	"/>
</g>
</svg>
