<?xml version="1.0" encoding="utf-8"?>
<!-- Generator: Adobe Illustrator 19.2.0, SVG Export Plug-In . SVG Version: 6.00 Build 0)  -->
<svg version="1.1" id="Layer_1" xmlns="http://www.w3.org/2000/svg" xmlns:xlink="http://www.w3.org/1999/xlink" x="0px" y="0px"
	 viewBox="0 0 48.5 44.6" style="enable-background:new 0 0 48.5 44.6;" xml:space="preserve">
<style type="text/css">
	.st0{fill:#FFFFFF;}
</style>
<g>
	<g>
		<path class="st0" d="M46.8,6.9h1.7v37.7h-1.1V8.2h-0.1l-16,36.4h-1.2l-16-36.4h-0.1v36.4H13V6.9h1.7l16,36.3h0.1L46.8,6.9z"/>
	</g>
	<g>
		<path class="st0" d="M33.8,0h1.7v37.7h-1.1V1.3h-0.1l-16,36.4h-1.2L1.2,1.3H1.1v36.4H0V0h1.7l16,36.3h0.1L33.8,0z"/>
	</g>
	<polyline class="st0" points="35.5,0 48.5,6.9 46.8,6.9 33.8,0 	"/>
	<polygon class="st0" points="14.7,6.9 1.7,0 0,0 13,6.9 	"/>
	<polygon class="st0" points="14.1,44.6 1.1,37.7 0,37.7 13,44.6 	"/>
	<polygon class="st0" points="31.3,44.6 18.3,37.7 17.2,37.7 30.2,44.6 	"/>
	<polygon class="st0" points="35.5,37.7 48.5,44.6 47.4,44.6 34.4,37.7 	"/>
</g>
</svg>
